Coordinates
version=1
nRows=14
nColumns=63
inDegrees=yes

Units are S.I. units (second, meters, Newtons, ...)
If the header above contains a line with 'inDegrees', this indicates whether rotational values are in degrees (yes) or radians (no).

endheader
time	pelvis_tilt	pelvis_list	pelvis_rotation	pelvis_tx	pelvis_ty	pelvis_tz	hip_flexion_r	hip_adduction_r	hip_rotation_r	knee_angle_r	knee_angle_r_beta	ankle_angle_r	subtalar_angle_r	mtp_angle_r	hip_flexion_l	hip_adduction_l	hip_rotation_l	knee_angle_l	knee_angle_l_beta	ankle_angle_l	subtalar_angle_l	mtp_angle_l	L5_S1_Flex_Ext	L5_S1_Lat_Bending	L5_S1_axial_rotation	L4_L5_Flex_Ext	L4_L5_Lat_Bending	L4_L5_axial_rotation	L3_L4_Flex_Ext	L3_L4_Lat_Bending	L3_L4_axial_rotation	L2_L3_Flex_Ext	L2_L3_Lat_Bending	L2_L3_axial_rotation	L1_L2_Flex_Ext	L1_L2_Lat_Bending	L1_L2_axial_rotation	L1_T12_Flex_Ext	L1_T12_Lat_Bending	L1_T12_axial_rotation	Abs_r3	Abs_r2	Abs_r1	Abs_t1	Abs_t2	neck_flexion	neck_bending	neck_rotation	arm_flex_r	arm_add_r	arm_rot_r	elbow_flex_r	pro_sup_r	wrist_flex_r	wrist_dev_r	arm_flex_l	arm_add_l	arm_rot_l	elbow_flex_l	pro_sup_l	wrist_flex_l	wrist_dev_l
0.000000	-1.969742	-2.625218	86.881379	0.255831	0.940261	0.342088	6.110702	-5.858067	-13.725853	18.109961	0.316078	30.230505	18.816622	0.000000	1.420908	4.870273	-1.150039	6.223744	0.108625	20.264468	-15.440859	0.000000	0.226882	-0.645027	3.116064	0.421343	-0.857886	3.310818	0.372745	-1.568318	3.310818	0.259304	-1.568318	2.726556	0.210683	-1.315339	2.531802	0.129640	-0.999147	2.337048	1.620596	-7.296673	17.330615	0.000000	0.000000	26.080039	-4.140872	-24.896709	8.009624	-11.242928	47.097134	54.117662	89.673657	10.429039	7.658324	18.214646	-12.953220	64.947616	55.955984	50.952026	11.974929	10.877504
0.016949	-2.167461	-2.701509	86.423032	0.256977	0.940187	0.341768	5.984562	-5.834512	-12.609367	17.260478	0.301252	30.800933	18.792645	0.000000	1.409989	5.016450	-1.821204	6.082651	0.106162	19.964675	-15.609693	0.000000	0.255206	-0.687337	3.265118	0.473943	-0.914158	3.469187	0.419278	-1.671191	3.469187	0.291675	-1.671191	2.856978	0.236984	-1.401618	2.652908	0.145825	-1.064685	2.448838	1.822910	-7.775294	18.159604	0.000000	0.000000	26.628530	-4.928475	-25.452481	7.624181	-10.510623	45.764741	54.087901	88.432598	10.124476	7.861791	18.172475	-13.350540	64.636862	56.607268	50.516703	11.482682	11.718099
0.033898	-2.319266	-2.744877	86.142112	0.257710	0.940160	0.341584	5.816038	-5.809364	-11.810350	16.482320	0.287671	31.252625	18.765833	0.000000	1.413577	5.129743	-2.348606	6.019418	0.105059	19.717826	-15.743921	0.000000	0.275692	-0.720675	3.377033	0.511988	-0.958497	3.588098	0.452935	-1.752248	3.588098	0.315089	-1.752248	2.954904	0.256008	-1.469599	2.743840	0.157531	-1.116325	2.532775	1.969242	-8.152414	18.782046	0.000000	0.000000	26.980761	-5.521083	-25.912138	7.276796	-9.906695	44.590250	54.087926	87.390357	9.741971	8.030489	18.152146	-13.651642	64.397825	57.112202	50.241417	11.065752	12.371149
0.050847	-2.430238	-2.758846	86.022046	0.258071	0.940176	0.341521	5.611230	-5.784102	-11.299067	15.773882	0.275306	31.597112	18.736790	0.000000	1.430186	5.214200	-2.742976	6.025603	0.105167	19.519227	-15.846736	0.000000	0.289049	-0.745941	3.454937	0.536793	-0.992101	3.670870	0.474878	-1.813681	3.670870	0.330354	-1.813681	3.023070	0.268411	-1.521123	2.807136	0.165162	-1.155463	2.591203	2.064647	-8.438233	19.215321	0.000000	0.000000	27.156904	-5.935934	-26.282155	6.966943	-9.420770	43.567046	54.113449	86.528910	9.295087	8.167173	18.151828	-13.865756	64.224891	57.483857	50.110675	10.719569	12.854373
0.067797	-2.505463	-2.746941	86.046262	0.258098	0.940228	0.341565	5.376239	-5.760201	-11.045784	15.133563	0.264131	31.845928	18.706120	0.000000	1.458329	5.273871	-3.015045	6.092761	0.106339	19.364186	-15.921330	0.000000	0.295983	-0.764038	3.501953	0.549671	-1.016171	3.720825	0.486271	-1.857682	3.720825	0.338279	-1.857682	3.064209	0.274850	-1.558027	2.845337	0.169125	-1.183495	2.626465	2.114179	-8.642952	19.476812	0.000000	0.000000	27.177133	-6.190263	-26.569005	6.694097	-9.042478	42.688516	54.160179	85.830232	8.797391	8.274599	18.169691	-14.002110	64.112443	57.735301	50.108986	10.439564	13.185485
0.084746	-2.550023	-2.712685	86.198187	0.257831	0.940311	0.341703	5.117164	-5.739141	-11.020764	14.559760	0.254116	32.010607	18.674426	0.000000	1.496518	5.312805	-3.175544	6.212451	0.108428	19.248008	-15.970896	0.000000	0.297203	-0.775868	3.521208	0.551936	-1.031904	3.741283	0.488276	-1.886445	3.741283	0.339674	-1.886445	3.081057	0.275983	-1.582149	2.860981	0.169822	-1.201819	2.640906	2.122894	-8.776771	19.583900	0.000000	0.000000	27.061621	-6.301305	-26.779161	6.457731	-8.761444	41.948046	54.223827	85.276297	8.262446	8.355524	18.203904	-14.069935	64.054865	57.879607	50.220857	10.221171	13.382201
0.101695	-2.569002	-2.659604	86.461249	0.257309	0.940419	0.341920	4.840105	-5.722398	-11.194272	14.050871	0.245234	32.102681	18.642315	0.000000	1.543266	5.335051	-3.235203	6.376230	0.111286	19.166001	-15.998625	0.000000	0.293417	-0.782332	3.515825	0.544904	-1.040501	3.735565	0.482055	-1.902161	3.735565	0.335346	-1.902161	3.076347	0.272467	-1.595330	2.856608	0.167658	-1.211832	2.636869	2.095847	-8.849890	19.553966	0.000000	0.000000	26.830541	-6.286298	-26.919098	6.257321	-8.567297	41.339023	54.300103	84.849081	7.703817	8.412703	18.252636	-14.078458	64.046542	57.929843	50.430797	10.059819	13.462239
0.118644	-2.567483	-2.591221	86.818875	0.256572	0.940548	0.342201	4.551161	-5.711450	-11.536575	13.605294	0.237457	32.133683	18.610388	0.000000	1.597086	5.344658	-3.204753	6.575653	0.114767	19.113471	-16.007709	0.000000	0.285331	-0.784331	3.488932	0.529889	-1.043161	3.706990	0.468771	-1.907023	3.706990	0.326105	-1.907023	3.052815	0.264959	-1.599408	2.834757	0.163038	-1.214929	2.616699	2.038092	-8.872511	19.404393	0.000000	0.000000	26.504067	-6.162475	-26.995288	6.092339	-8.449665	40.854833	54.384718	84.530558	7.135070	8.448893	18.314057	-14.036909	64.081858	57.899081	50.723313	9.950942	13.443313
0.135593	-2.550550	-2.511060	87.254494	0.255659	0.940691	0.342533	4.256434	-5.707775	-12.017935	13.221426	0.230757	32.115147	18.579252	0.000000	1.656491	5.345676	-3.094925	6.802278	0.118722	19.085725	-16.001342	0.000000	0.273654	-0.782769	3.443652	0.508203	-1.041082	3.658881	0.449587	-1.903223	3.658881	0.312759	-1.903223	3.013196	0.254115	-1.596222	2.797968	0.156366	-1.212508	2.582739	1.954685	-8.854834	19.152562	0.000000	0.000000	26.102372	-5.947074	-27.014206	5.962260	-8.398174	40.488861	54.473382	84.302704	6.569768	8.466849	18.386337	-13.954517	64.155196	57.800390	51.082915	9.889969	13.343140
0.152542	-2.523287	-2.422647	87.751531	0.254608	0.940843	0.342901	3.962021	-5.712850	-12.608620	12.897664	0.225107	32.058606	18.549509	0.000000	1.719993	5.342154	-2.916449	7.047662	0.123005	19.078069	-15.982715	0.000000	0.259094	-0.778545	3.383112	0.481163	-1.035465	3.594557	0.425665	-1.892955	3.594557	0.296118	-1.892955	2.960223	0.240594	-1.587610	2.748779	0.148046	-1.205967	2.537334	1.850681	-8.807060	18.815854	0.000000	0.000000	25.645628	-5.657330	-26.982325	5.866559	-8.402453	40.234495	54.561805	84.147492	6.021478	8.469328	18.467644	-13.840510	64.260943	57.646841	51.494109	9.872333	13.179436
0.169492	-2.490777	-2.329504	88.293417	0.253461	0.940998	0.343292	3.674024	-5.728152	-13.278892	12.632407	0.220477	31.975593	18.521764	0.000000	1.786106	5.338140	-2.680057	7.303362	0.127468	19.085810	-15.955021	0.000000	0.242357	-0.772563	3.310436	0.450082	-1.027509	3.517338	0.398169	-1.878410	3.517338	0.276990	-1.878410	2.896631	0.225053	-1.575411	2.689729	0.138483	-1.196700	2.482827	1.731133	-8.739388	18.411652	0.000000	0.000000	25.154010	-5.310480	-26.906119	5.804710	-8.452128	40.085121	54.645697	84.046900	5.503762	8.459084	18.556149	-13.704119	64.393480	57.451504	51.941404	9.893466	12.969917
0.186441	-2.470724	-2.236612	88.838239	0.252298	0.941150	0.343693	3.413533	-5.766163	-13.939150	12.431896	0.216978	31.895962	18.490980	0.000000	1.852277	5.349747	-2.454364	7.558005	0.131912	19.053126	-15.939377	0.000000	0.224443	-0.768113	3.240870	0.416813	-1.021590	3.443424	0.368738	-1.867589	3.443424	0.256516	-1.867589	2.835761	0.208418	-1.566335	2.633207	0.128247	-1.189806	2.430652	1.603175	-8.689044	18.024745	0.000000	0.000000	24.633181	-4.931941	-26.871082	5.725499	-8.503140	39.825800	54.756182	83.971716	5.084965	8.489958	18.666537	-13.563858	64.540099	57.282049	52.472747	9.934820	12.808338
0.203390	-2.458159	-2.158508	89.410593	0.251102	0.941271	0.344082	3.177075	-5.821385	-14.661015	12.294695	0.214583	31.807688	18.474167	0.000000	1.928526	5.373268	-2.111356	7.799031	0.136119	19.039265	-15.942883	0.000000	0.205815	-0.763587	3.157804	0.382219	-1.015571	3.355166	0.338133	-1.856587	3.355166	0.235226	-1.856587	2.763078	0.191120	-1.557108	2.565715	0.117603	-1.182797	2.368353	1.470114	-8.637854	17.562757	0.000000	0.000000	24.161989	-4.553893	-26.797670	5.712075	-8.581626	39.752494	54.831984	83.966905	4.735425	8.510888	18.773024	-13.425483	64.709388	57.071880	53.050689	10.042431	12.579380
0.220339	-2.467168	-2.086810	89.965544	0.249957	0.941379	0.344397	2.959500	-5.899344	-15.364069	12.210862	0.213120	31.730414	18.458674	0.000000	1.981905	5.423555	-1.710314	7.984918	0.139363	19.019386	-15.964278	0.000000	0.187531	-0.760791	3.068360	0.348264	-1.011852	3.260132	0.308095	-1.849786	3.260132	0.214329	-1.849786	2.684815	0.174141	-1.551404	2.493042	0.107155	-1.178465	2.301270	1.339516	-8.606216	17.065295	0.000000	0.000000	23.732272	-4.174868	-26.644759	5.793946	-8.690369	39.965946	54.852307	83.844533	4.394246	8.484651	18.864926	-13.304515	64.887454	56.840714	53.570142	10.216762	12.329332
